<svg width="28" height="37" viewBox="0 0 28 37" fill="none" xmlns="http://www.w3.org/2000/svg">
<path fill-rule="evenodd" clip-rule="evenodd" d="M14 0C20.8727 0 26.4441 5.76167 26.4443 12.8691C27.3034 12.8691 28 13.5901 28 14.4785V33.2461C28 35.3192 26.3747 37 24.3701 37H3.62988C1.62529 37 7.09898e-08 35.3192 0 33.2461V14.4785C0 13.5901 0.696555 12.8691 1.55566 12.8691C1.55589 5.76167 7.12726 0 14 0ZM14 18C11.791 18 10.0002 19.6964 10 21.7891C10 23.02 10.6203 24.1135 11.5801 24.8057L10.9248 28.5293C10.7896 29.2991 11.4174 30 12.2412 30H15.7588C16.5826 30 17.2104 29.2991 17.0752 28.5293L16.4189 24.8057C17.3791 24.1135 18 23.0203 18 21.7891C17.9998 19.6964 16.209 18 14 18ZM14 4.29004C9.41822 4.29004 5.70432 8.13089 5.7041 12.8691H22.2959C22.2957 8.13089 18.5818 4.29004 14 4.29004Z" fill="white"/>
</svg>
