<svg width="16" height="16" viewBox="0 0 16 16" fill="none" xmlns="http://www.w3.org/2000/svg">
<path fill-rule="evenodd" clip-rule="evenodd" d="M8 16C4.22876 16 2.34315 16 1.17157 14.8284C0 13.6569 0 11.7712 0 8C0 4.22876 0 2.34315 1.17157 1.17157C2.34315 0 4.22876 0 8 0C11.7712 0 13.6569 0 14.8284 1.17157C16 2.34315 16 4.22876 16 8C16 11.7712 16 13.6569 14.8284 14.8284C13.6569 16 11.7712 16 8 16ZM11.2243 5.57574C11.4586 5.81005 11.4586 6.18995 11.2243 6.42426L7.22426 10.4243C6.98995 10.6586 6.61005 10.6586 6.37574 10.4243L4.77574 8.82426C4.54142 8.58995 4.54142 8.21005 4.77574 7.97574C5.01005 7.74142 5.38995 7.74142 5.62426 7.97574L6.8 9.15147L10.3757 5.57574C10.6101 5.34142 10.9899 5.34142 11.2243 5.57574Z" fill="#282828"/>
</svg>
