<svg width="22" height="12" viewBox="0 0 22 12" fill="none" xmlns="http://www.w3.org/2000/svg">
<path opacity="0.75" fill-rule="evenodd" clip-rule="evenodd" d="M0.606029 0.0846361C1.11365 -0.142373 1.70153 0.102997 1.91908 0.632686L0.999944 1.04372C1.91908 0.632686 1.91922 0.633026 1.91908 0.632686L1.91856 0.631432C1.91828 0.630756 1.91849 0.63125 1.91856 0.631432L1.92248 0.640685C1.92649 0.650089 1.93337 0.666073 1.94317 0.688198C1.96276 0.732462 1.99395 0.801204 2.03694 0.890927C2.123 1.07053 2.25591 1.33323 2.43735 1.65129C2.80134 2.28938 3.35436 3.13923 4.10771 3.9858C4.28528 4.18534 4.4732 4.38392 4.67168 4.579C4.67998 4.58687 4.68819 4.59491 4.69629 4.60312C6.18096 6.05377 8.25219 7.30445 10.9998 7.30445C12.2088 7.30445 13.2782 7.06361 14.2207 6.67649C15.4467 6.17295 16.4744 5.41488 17.3154 4.59116C18.265 3.6611 18.9625 2.66112 19.423 1.88996C19.6524 1.50588 19.8205 1.18269 19.9297 0.959294C19.9842 0.847715 20.0239 0.76139 20.049 0.705234C20.0615 0.677166 20.0704 0.656671 20.0756 0.644365L20.0806 0.632686C20.2983 0.103285 20.8862 -0.142314 21.3937 0.084636C21.9013 0.311645 22.1364 0.925071 21.9189 1.45476L20.9998 1.04372C21.9189 1.45476 21.919 1.45452 21.9189 1.45476L21.9167 1.46L21.9131 1.46858L21.9017 1.49555C21.8922 1.5178 21.8788 1.54852 21.8616 1.58706C21.8272 1.66413 21.7772 1.77262 21.7113 1.90743C21.5797 2.1768 21.3838 2.55264 21.1204 2.9936C20.7178 3.66783 20.1518 4.50402 19.4094 5.34723L20.2069 6.17933C20.5974 6.58682 20.5974 7.2475 20.2069 7.655C19.8163 8.06249 19.1832 8.06249 18.7927 7.655L17.9525 6.77831C17.3882 7.25385 16.7568 7.70239 16.0556 8.08933L16.838 9.344C17.1392 9.82704 17.0081 10.4734 16.5452 10.7877C16.0823 11.102 15.4628 10.9652 15.1616 10.4822L14.1762 8.90184C13.4972 9.11903 12.7718 9.27295 11.9998 9.3451V10.9565C11.9998 11.5328 11.5521 12 10.9998 12C10.4476 12 9.99986 11.5328 9.99986 10.9565V9.34525C9.22522 9.27304 8.50006 9.11881 7.82327 8.90226L6.83807 10.4822C6.53687 10.9652 5.91743 11.102 5.45452 10.7877C4.9916 10.4734 4.86051 9.82704 5.16172 9.34401L5.94412 8.0893C5.244 7.70267 4.61241 7.25413 4.04742 6.77808L3.20703 7.655C2.81651 8.06249 2.18335 8.06249 1.79283 7.655C1.40231 7.2475 1.40231 6.58682 1.79283 6.17933L2.59026 5.34723C1.74528 4.38751 1.1277 3.43557 0.718779 2.71871C0.509592 2.352 0.353446 2.04407 0.248102 1.82422C0.195393 1.71422 0.155289 1.62604 0.12752 1.56331C0.113632 1.53193 0.102819 1.5069 0.0950477 1.48867L0.0856631 1.46646L0.0826712 1.45927L0.0815987 1.45668L0.0811681 1.45564C0.0809822 1.45518 0.080808 1.45476 0.999944 1.04372L0.0811681 1.45564C-0.136385 0.925947 0.0984038 0.311646 0.606029 0.0846361Z" fill="#282828"/>
</svg>
