<svg width="1440" height="224" viewBox="0 0 1440 224" fill="none" xmlns="http://www.w3.org/2000/svg">
<path d="M1398.26 9.56295C1450.86 3.68685 1485.56 15.9538 1501.28 33.3715L1482.72 50.1235C1474.77 41.3107 1449.97 28.9422 1401.04 34.4086C1352.67 39.8117 1282.66 62.5744 1187.73 120.813C1127.43 157.809 1077.68 183.345 1036.87 199.027C996.254 214.635 963.452 220.895 937.459 218.126C910.685 215.274 891.413 202.816 879.398 182.667C867.851 163.302 863.695 137.996 863.695 110.159C863.695 84.0568 859.78 65.5386 852.453 53.6196C845.712 42.6546 835.372 36.0883 818.266 35.1616C800.304 34.1886 775.239 39.5477 741.151 53.5835C707.281 67.5298 665.564 89.5872 614.669 120.813C563.348 152.3 519.248 177.307 481.957 194.765C444.912 212.108 413.433 222.568 387.659 223.861C361.02 225.197 339.436 216.665 325.401 195.639C312.22 175.891 306.989 146.889 306.989 110.159C306.989 74.7817 301.126 53.322 290.935 41.0512C281.434 29.6127 265.871 23.5883 238.807 25.2749C211.55 26.9735 175.153 36.4033 127.479 53.017C79.9999 69.5627 22.3283 92.8666 -47.2109 121.706L-56.7871 98.6128C12.7178 69.7881 71.0048 46.2227 119.251 29.4096C167.302 12.6647 206.397 2.24558 237.251 0.322713C268.297 -1.61211 293.465 4.9684 310.167 25.0776C326.178 44.3547 331.989 73.3861 331.989 110.159C331.989 145.578 337.247 168.353 346.195 181.76C354.291 193.889 366.479 199.892 386.407 198.892C407.201 197.849 435.087 189.103 471.356 172.123C507.38 155.259 550.547 130.824 601.596 99.5044C653.071 67.923 696.047 45.1187 731.633 30.4663C767.001 15.9033 796.156 8.92696 819.617 10.1977C843.933 11.5149 862.221 21.7714 873.751 40.5268C884.695 58.3285 888.695 82.4287 888.695 110.159C888.695 136.153 892.695 156.151 900.871 169.864C908.581 182.793 920.602 191.189 940.107 193.267C960.394 195.428 988.857 190.695 1027.9 175.69C1066.76 160.758 1115.08 136.06 1174.66 99.5044C1271.55 40.0604 1345.09 15.5026 1398.26 9.56295Z" fill="#FFE1EF"/>
</svg>
