<svg width="14" height="14" viewBox="0 0 14 14" fill="none" xmlns="http://www.w3.org/2000/svg">
<path fill-rule="evenodd" clip-rule="evenodd" d="M14 7C14 10.866 10.866 14 7 14C3.13401 14 0 10.866 0 7C0 3.13401 3.13401 0 7 0C10.866 0 14 3.13401 14 7ZM4.87874 4.87875C5.08376 4.67373 5.41618 4.67373 5.6212 4.87875L6.99998 6.25753L8.37874 4.87877C8.58376 4.67374 8.91618 4.67374 9.1212 4.87877C9.32623 5.08379 9.32623 5.41621 9.1212 5.62123L7.74244 6.99999L9.12119 8.37874C9.32621 8.58377 9.32621 8.91618 9.12119 9.1212C8.91616 9.32623 8.58375 9.32623 8.37872 9.1212L6.99998 7.74246L5.62122 9.12122C5.41619 9.32624 5.08378 9.32624 4.87875 9.12122C4.67373 8.91619 4.67373 8.58378 4.87875 8.37875L6.25752 6.99999L4.87874 5.62122C4.67371 5.41619 4.67371 5.08378 4.87874 4.87875Z" fill="white"/>
</svg>
