<svg width="18" height="14" viewBox="0 0 18 14" fill="none" xmlns="http://www.w3.org/2000/svg">
<g opacity="0.75">
<path d="M6.975 7C6.975 5.91269 7.88162 5.03125 9 5.03125C10.1184 5.03125 11.025 5.91269 11.025 7C11.025 8.08731 10.1184 8.96875 9 8.96875C7.88162 8.96875 6.975 8.08731 6.975 7Z" fill="#282828"/>
<path fill-rule="evenodd" clip-rule="evenodd" d="M0 7C0 8.43445 0.382468 8.91754 1.1474 9.88371C2.67477 11.8129 5.2363 14 9 14C12.7637 14 15.3252 11.8129 16.8526 9.88371C17.6175 8.91754 18 8.43445 18 7C18 5.56555 17.6175 5.08246 16.8526 4.11629C15.3252 2.18711 12.7637 0 9 0C5.2363 0 2.67477 2.18711 1.1474 4.11629C0.382468 5.08246 0 5.56555 0 7ZM9 3.71875C7.13604 3.71875 5.625 5.18782 5.625 7C5.625 8.81218 7.13604 10.2812 9 10.2812C10.864 10.2812 12.375 8.81218 12.375 7C12.375 5.18782 10.864 3.71875 9 3.71875Z" fill="#282828"/>
</g>
</svg>
