<svg width="20" height="20" viewBox="0 0 20 20" fill="none" xmlns="http://www.w3.org/2000/svg">
<path fill-rule="evenodd" clip-rule="evenodd" d="M10 -5.34058e-05C10.4142 -5.34058e-05 10.75 0.339782 10.75 0.75899V11.8639L12.4306 9.87957C12.7001 9.56129 13.1736 9.52443 13.4881 9.79724C13.8026 10.0701 13.839 10.5492 13.5695 10.8675L10.5695 14.4097C10.427 14.578 10.219 14.6748 10 14.6748C9.78107 14.6748 9.57306 14.578 9.43057 14.4097L6.43057 10.8675C6.161 10.5492 6.19743 10.0701 6.51192 9.79724C6.82641 9.52443 7.29989 9.56129 7.56946 9.87957L9.25001 11.8639L9.25001 0.75899C9.25001 0.339782 9.5858 -5.34058e-05 10 -5.34058e-05Z" fill="white"/>
<path d="M7.75 7.42436C7.75 7.82527 7.34383 8.10763 6.94303 8.11688C6.4412 8.12847 5.94011 8.30784 5.5293 8.66406C4.59233 9.47686 4.48729 10.8937 5.28613 11.8369L8.28613 15.3789L8.4541 15.5576C8.86773 15.9501 9.41947 16.1748 10 16.1748C10.6634 16.1747 11.2887 15.8809 11.7139 15.3789L14.7139 11.8369C15.5126 10.8937 15.4075 9.47684 14.4707 8.66406C14.0599 8.30781 13.5588 8.12847 13.0569 8.11691C12.6561 8.10767 12.25 7.8253 12.25 7.4244C12.25 7.10371 12.51 6.84375 12.8306 6.84375H14C16.8281 6.84375 18.2424 6.84344 19.1211 7.73242C19.9998 8.6217 20 10.0535 20 12.916V13.9277C20 16.7901 19.9997 18.2211 19.1211 19.1104C18.2424 19.9996 16.8284 20 14 20H6C3.17157 20 1.75759 19.9996 0.878906 19.1104C0.000328422 18.2211 0 16.7901 0 13.9277V12.916C0 10.0535 0.000227213 8.6217 0.878906 7.73242C1.75761 6.84344 3.17189 6.84375 6 6.84375H7.16939C7.49005 6.84375 7.75 7.1037 7.75 7.42436Z" fill="white"/>
</svg>
